# xmcd CD database file
#
# Track frame offsets:
#	150
#	13369
#	26852
#	38496
#	50355
#	62897
#	73477
#	87627
#	102768
#	113517
#	130816
#	142103
#
# Disc length: 2105 seconds
#
# Revision: 0
# Processed by: cddbd v1.4PL0 Copyright (c) Steve Scherf et al.
# Submitted via: CDex 1.40Release
#
DISCID=b008370c
DTITLE=Kenny Rogers - Way It Used To Be, The
DYEAR=1900
DGENRE=Country
TTITLE0=Ruby Don't Take Your Love To Town
TTITLE1=Shine On Ruby Mountain
TTITLE2=Me and Bobby McGee
TTITLE3=Elvira
TTITLE4=Reuben James
TTITLE5=Ticket To Nowhere
TTITLE6=Sunshine
TTITLE7=Conditions (Just Dropped In)
TTITLE8=Goodtime Liberator
TTITLE9=Something's Burning
TTITLE10=Hurry Love
TTITLE11=The Way It Used To Be
EXTD=ID3G: 2
EXTT0=
EXTT1=
EXTT2=
EXTT3=
EXTT4=
EXTT5=
EXTT6=
EXTT7=
EXTT8=
EXTT9=
EXTT10=
EXTT11=
PLAYORDER=
